<svg id="Layer_1" data-name="Layer 1" xmlns="http://www.w3.org/2000/svg" viewBox="0 0 504 504"><defs><style>.cls-1{fill:none;}.cls-2{fill:#005dba;}.cls-3{fill:#ffb900;}</style></defs><title>Socials</title><g id="canvas"><path class="cls-1" d="M509.87,510H5.87V6h504Z" transform="translate(-5.87 -6)"/></g><g id="level-1"><path class="cls-2" d="M509.87,305.25A110.26,110.26,0,0,1,399.62,415.5h-126a110.25,110.25,0,0,1,0-220.5h45.64a79.34,79.34,0,0,1,1.61,15.75A77.24,77.24,0,0,1,319,226.5H273.62a78.75,78.75,0,0,0,0,157.5h126a78.75,78.75,0,0,0,0-157.5H351.11a101.27,101.27,0,0,0,1.26-15.75A109.3,109.3,0,0,0,351.11,195h48.51A110.26,110.26,0,0,1,509.87,305.25Z" transform="translate(-5.87 -6)"/><path class="cls-3" d="M352.37,210.75A110.26,110.26,0,0,1,242.12,321H196.47a78.08,78.08,0,0,1,0-31.5h45.65a78.75,78.75,0,0,0,0-157.5h-126a78.75,78.75,0,0,0,0,157.5H165a108.06,108.06,0,0,0-1.6,15.75A108.06,108.06,0,0,0,165,321H116.12a110.25,110.25,0,0,1,0-220.5h126A110.26,110.26,0,0,1,352.37,210.75Z" transform="translate(-5.87 -6)"/></g></svg>