<svg id="Layer_1" data-name="Layer 1" xmlns="http://www.w3.org/2000/svg" viewBox="0 0 512 512"><defs><style>.cls-1{fill:none;}.cls-2{fill:#b28100;}.cls-3{fill:#ffb900;}.cls-4{fill:#00632d;}.cls-5{fill:#00b050;}</style></defs><title>TechStack</title><g id="canvas"><path class="cls-1" d="M512,512H0V0H512Z"/></g><g id="level-1"><path class="cls-2" d="M306.87,487.17H54.2L40,472V437H292l14.87,14.07ZM415.16,342.78,401,329H112v35l14.39,14.88H415.16ZM306.87,234.49,292,220H112v36l14.39,14.59H306.87Zm180.48,0L473,220H329v36l14,14.59H487.35Zm0-108.28L472,112H256v36l14.78,14.3H487.35Z"/><path class="cls-3" d="M292.09,472.56H39.44V436.47H292.09ZM400.38,328.19H111.63v36.09H400.38ZM292.09,219.91H111.63V256H292.09Zm180.47,0H328.19V256H472.56Zm0-108.29H256v36.1H472.56Z"/><path class="cls-4" d="M101.88,59.19,106,27l21.44,6.64,85.41,84.84-85.41,85.09L106,196l-4.12-18L161,118.48Z"/><path class="cls-5" d="M80.8,52.23l25.56-25.56,85.4,84.85-85.4,85.08L80.8,171.05l59.07-59.53Z"/></g></svg>