<svg id="Layer_1" data-name="Layer 1" xmlns="http://www.w3.org/2000/svg" viewBox="0 0 512 512"><defs><style>.cls-1{fill:none;}.cls-2,.cls-3{fill:#ffb900;}.cls-2{opacity:0.1;isolation:isolate;}.cls-4{opacity:0;}.cls-5{fill:#005dba;}.cls-6{fill:#fff;}</style></defs><title>UserInfo</title><g id="canvas"><path class="cls-1" d="M512,512H0V0H512Z" transform="translate(0 0)"/></g><g id="level-1"><path class="cls-2" d="M233,24A139.32,139.32,0,1,1,93.69,163.34,139.31,139.31,0,0,1,233,24Z" transform="translate(0 0)"/><path class="cls-2" d="M24,511.63c0-115.42,93.56-209,209-209s209,93.55,209,209Z" transform="translate(0 0)"/><path class="cls-3" d="M323.88,298a162.53,162.53,0,1,0-181.76,0A232.53,232.53,0,0,0,.81,511.63H47.25a185.75,185.75,0,0,1,371.5,0h46.44A232.53,232.53,0,0,0,323.88,298Zm-207-134.67A116.09,116.09,0,1,1,233,279.44,116.09,116.09,0,0,1,116.91,163.34Z" transform="translate(0 0)"/></g><g id="canvas-2" data-name="canvas" class="cls-4"><path class="cls-1" d="M512,512H255.84V256H512Z" transform="translate(0 0)"/></g><g id="level-1-2" data-name="level-1"><path class="cls-5" d="M511.34,392.88A118.63,118.63,0,1,1,392.72,274.25,118.62,118.62,0,0,1,511.34,392.88Z" transform="translate(0 0)"/><path class="cls-6" d="M401.84,456.75V365.5H383.59v91.25Zm4.56-123.19a13.69,13.69,0,1,1-13.68-13.68A13.68,13.68,0,0,1,406.4,333.56Z" transform="translate(0 0)"/></g></svg>