<svg id="Layer_1" data-name="Layer 1" xmlns="http://www.w3.org/2000/svg" viewBox="0 0 512 512"><defs><style>.cls-1{fill:none;}.cls-2,.cls-3{fill:#ffb900;}.cls-2{opacity:0.1;isolation:isolate;}.cls-4{opacity:0;}.cls-5{fill:#005dba;}.cls-6{fill:#fff;}</style></defs><title>UserInfo</title><g id="canvas"><path class="cls-1" d="M596.75,596.75H-84.75V-84.75h681.5Z"/></g><g id="level-1"><path class="cls-2" d="M256,64.33A127.78,127.78,0,1,1,128.22,192.11,127.78,127.78,0,0,1,256,64.33Z"/><path class="cls-2" d="M64.33,511.56c0-105.85,85.81-191.67,191.67-191.67s191.67,85.82,191.67,191.67Z"/><path class="cls-3" d="M339.36,315.63a149.08,149.08,0,1,0-166.72,0A213.28,213.28,0,0,0,43,511.56h42.6a170.38,170.38,0,0,1,340.75,0H469A213.28,213.28,0,0,0,339.36,315.63ZM149.52,192.11A106.48,106.48,0,1,1,256,298.59,106.48,106.48,0,0,1,149.52,192.11Z"/></g><g id="canvas-2" data-name="canvas" class="cls-4"><path class="cls-1" d="M544.84,545h-262V283h262Z"/></g><g id="level-1-2" data-name="level-1"><path class="cls-5" d="M512.09,405.81A106.44,106.44,0,1,1,405.65,299.38,106.43,106.43,0,0,1,512.09,405.81Z"/><path class="cls-6" d="M413.84,463.13V381.25H397.47v81.88Zm4.1-110.54a12.29,12.29,0,1,1-12.29-12.28A12.29,12.29,0,0,1,417.94,352.59Z"/></g></svg>