<svg id="Layer_1" data-name="Layer 1" xmlns="http://www.w3.org/2000/svg" viewBox="0 0 512 512"><defs><style>.cls-1{fill:none;}.cls-2,.cls-3{fill:#ffb900;}.cls-2{opacity:0.1;isolation:isolate;}.cls-4{opacity:0;}.cls-5{fill:#005dba;}.cls-6{fill:#fff;}</style></defs><title>UserInfo</title><g id="canvas"><path class="cls-1" d="M560,560H-48V-48H560Z"/></g><g id="level-1"><path class="cls-2" d="M256,85A114,114,0,1,1,142,199,114,114,0,0,1,256,85Z"/><path class="cls-2" d="M85,484a171,171,0,0,1,342,0Z"/><path class="cls-3" d="M330.37,309.2a133,133,0,1,0-148.74,0A190.27,190.27,0,0,0,66,484h38a152,152,0,0,1,304,0h38A190.27,190.27,0,0,0,330.37,309.2ZM161,199a95,95,0,1,1,95,95A95,95,0,0,1,161,199Z"/></g><g id="canvas-2" data-name="canvas" class="cls-4"><path class="cls-1" d="M511.84,533H279.4V300.56H511.84Z"/></g><g id="level-1-2" data-name="level-1"><path class="cls-5" d="M482.79,409.52a94.44,94.44,0,1,1-94.43-94.43A94.43,94.43,0,0,1,482.79,409.52Z"/><path class="cls-6" d="M395.62,460.37V387.73H381.09v72.64Zm3.63-98.07a10.9,10.9,0,1,1-10.89-10.89A10.9,10.9,0,0,1,399.25,362.3Z"/></g></svg>