<svg id="Layer_1" data-name="Layer 1" xmlns="http://www.w3.org/2000/svg" viewBox="0 0 512 512"><defs><style>.cls-1{fill:none;}.cls-2,.cls-3{fill:#ffb900;}.cls-2{opacity:0.1;isolation:isolate;}.cls-4{opacity:0;}.cls-5{fill:#005dba;}.cls-6{fill:#fff;}</style></defs><title>UserInfo</title><g id="canvas"><path class="cls-1" d="M512,512H0V0H512Z" transform="translate(0 0)"/></g><g id="level-1"><path class="cls-2" d="M256,112a96,96,0,1,1-96,96A96,96,0,0,1,256,112Z" transform="translate(0 0)"/><path class="cls-2" d="M112,448a144,144,0,0,1,288,0Z" transform="translate(0 0)"/><path class="cls-3" d="M318.62,300.8a112,112,0,1,0-125.24,0A160.22,160.22,0,0,0,96,448h32a128,128,0,0,1,256,0h32A160.22,160.22,0,0,0,318.62,300.8ZM176,208a80,80,0,1,1,80,80A80,80,0,0,1,176,208Z" transform="translate(0 0)"/></g><g id="canvas-2" data-name="canvas" class="cls-4"><path class="cls-1" d="M512,511.74H316.26V316H512Z" transform="translate(0 0)"/></g><g id="level-1-2" data-name="level-1"><path class="cls-5" d="M487.53,407.76A79.52,79.52,0,1,1,408,328.23,79.52,79.52,0,0,1,487.53,407.76Z" transform="translate(0 0)"/><path class="cls-6" d="M414.13,450.57V389.4H401.89v61.17ZM417.19,368a9.18,9.18,0,1,1-9.18-9.17A9.18,9.18,0,0,1,417.19,368Z" transform="translate(0 0)"/></g></svg>